# xmcd
#
# Track frame offsets:
#	150
#	9573
#	31135
#	47535
#	70378
#
# Disc length: 1321 seconds
#
# Revision: 1
# Processed by: cddbd v1.5.1PL0 Copyright (c) Steve Scherf et al.
# Submitted via: CDex 1.50Beta5
#
DISCID=36052705
DTITLE=FLYING KIDS - 名曲アルバム
DYEAR=1900
DGENRE=J-POP
TTITLE0=国民のみなさん
TTITLE1=あれの唄
TTITLE2=ちゅるちゅるベイビー
TTITLE3=君が昔愛した人
TTITLE4=キャンプファイヤー~おやすみなさい
EXTD=
EXTT0=
EXTT1=
EXTT2=
EXTT3=
EXTT4=
PLAYORDER=
